<svg width="39" height="39" viewBox="0 0 39 39" fill="none" xmlns="http://www.w3.org/2000/svg">
<path d="M12.9997 19.512C12.9934 15.9227 15.8984 13.0069 19.4871 13.0006C23.0764 12.9936 25.9927 15.8974 25.9997 19.4874C26.0066 23.0773 23.1016 25.9925 19.5117 25.9995C15.923 26.0063 13.0066 23.102 12.9997 19.512ZM9.48758 19.5189C9.49832 25.0492 13.9898 29.5224 19.5187 29.5116C25.0481 29.5009 29.5239 25.0106 29.5131 19.4804C29.5024 13.952 25.0103 9.47633 19.4801 9.48707C13.9512 9.49781 9.47684 13.99 9.48758 19.5189ZM27.5483 9.07643C27.5508 10.3678 28.6007 11.4135 29.8922 11.4109C31.1842 11.4084 32.2299 10.3589 32.228 9.0676C32.2255 7.77618 31.1754 6.72988 29.8834 6.73239C28.5914 6.7349 27.5457 7.78494 27.5483 9.07643ZM11.6515 35.3862C9.75037 35.3034 8.71801 34.9876 8.03003 34.7229C7.11893 34.3703 6.4688 33.9476 5.78455 33.2684C5.10159 32.5867 4.67762 31.9385 4.3219 31.0292C4.05468 30.3412 3.73309 29.3101 3.64397 27.409C3.5473 25.3537 3.52521 24.7371 3.51577 19.5304C3.50564 14.3248 3.5246 13.7082 3.61433 11.651C3.69576 9.75116 4.01363 8.71751 4.27772 8.03013C4.63024 7.11782 5.0517 6.46891 5.73214 5.78466C6.41381 5.10048 7.06203 4.67773 7.97183 4.322C8.65928 4.0535 9.69035 3.73441 11.5908 3.64407C13.6473 3.5468 14.2633 3.52593 19.4688 3.5158C24.6754 3.50575 25.292 3.52403 27.3492 3.61444C29.249 3.69717 30.2826 4.01183 30.9695 4.27782C31.8811 4.63035 32.5312 5.05051 33.2148 5.73225C33.8984 6.41399 34.3224 7.06092 34.6781 7.97262C34.9465 8.65817 35.2657 9.69053 35.3554 11.5903C35.4533 13.6469 35.4755 14.2636 35.4849 19.469C35.495 24.6758 35.476 25.2925 35.3858 27.3483C35.303 29.2494 34.9877 30.2825 34.7224 30.9712C34.3698 31.8816 33.9484 32.5317 33.2673 33.216C32.5862 33.8977 31.938 34.3229 31.0276 34.6786C30.3413 34.9465 29.3091 35.2662 27.4099 35.3565C25.3534 35.4532 24.7373 35.4753 19.53 35.4848C14.3246 35.4949 13.7086 35.4753 11.6515 35.3862ZM11.424 0.135059C9.34917 0.23294 7.93207 0.565278 6.69366 1.05049C5.41177 1.55026 4.3251 2.22004 3.24414 3.30549C2.16181 4.39155 1.49713 5.48012 1.00118 6.76332C0.521066 8.00484 0.195659 9.42263 0.104024 11.4988C0.0130747 13.5787 -0.00779645 14.2421 0.00233443 19.5373C0.0124653 24.8318 0.0357739 25.4965 0.13495 27.577C0.234126 29.6512 0.565246 31.0678 1.05046 32.3068C1.55084 33.5887 2.21993 34.6748 3.30599 35.7564C4.39144 36.8382 5.4807 37.5021 6.7645 37.9988C8.00474 38.4783 9.42306 38.8049 11.4986 38.8959C13.5785 38.9876 14.2425 39.0078 19.5363 38.9976C24.8327 38.9876 25.4968 38.9642 27.5767 38.8656C29.6515 38.7664 31.0673 38.4341 32.307 37.9501C33.5889 37.4484 34.6755 36.7806 35.7566 35.6946C36.8376 34.6091 37.5023 33.5199 37.9982 32.236C38.4784 30.9958 38.805 29.5774 38.8953 27.5031C38.9863 25.422 39.0079 24.7573 38.9977 19.4627C38.9875 14.1675 38.9636 13.5042 38.8651 11.4248C38.7665 9.34875 38.4342 7.93279 37.9496 6.69316C37.4486 5.41126 36.7802 4.32581 35.6947 3.24356C34.6093 2.16253 33.52 1.49656 32.2362 1.0019C30.9953 0.521632 29.5776 0.194397 27.5021 0.104666C25.4221 0.0124983 24.7582 -0.00776346 19.4624 0.00236741C14.1679 0.0124983 13.5039 0.0351975 11.424 0.135059Z" fill="#EEF0F2"/>
</svg>
