<svg width="34" height="39" viewBox="0 0 34 39" fill="none" xmlns="http://www.w3.org/2000/svg">
<g clip-path="url(#clip0_22_97)">
<path d="M28.921 7.81695C26.821 6.44728 25.3058 4.25505 24.833 1.70111C24.7308 1.14946 24.6741 0.581163 24.6741 0H17.9717L17.9604 26.8705C17.8484 29.88 15.3724 32.2947 12.3374 32.2947C11.3941 32.2947 10.506 32.0593 9.72379 31.6469C7.93018 30.7033 6.70241 28.8228 6.70241 26.6594C6.70241 23.5515 9.23057 21.0225 12.3367 21.0225C12.9169 21.0225 13.4729 21.1186 13.9987 21.2828V14.4383C13.454 14.3634 12.901 14.318 12.3367 14.318C5.53441 14.318 0 19.8534 0 26.6594C0 30.8342 2.08486 34.5293 5.26737 36.7631C7.27053 38.1714 9.70867 39 12.3374 39C19.1405 39 24.6741 33.4638 24.6741 26.6594V13.033C27.3029 14.9203 30.524 16.0327 34 16.0327V9.32737C32.1277 9.32737 30.384 8.77118 28.921 7.81695Z" fill="#EEF0F2"/>
</g>
<defs>
<clipPath id="clip0_22_97">
<rect width="34" height="39" fill="white"/>
</clipPath>
</defs>
</svg>
