<svg fill="none" height="24" viewBox="0 0 24 24" width="24" xmlns="http://www.w3.org/2000/svg"><g stroke="#ffffff" stroke-width="1.5"><path d="m5 7.66667c0-.61998 0-.92998.06815-1.18431.18493-.69018.72403-1.22928 1.41421-1.41421.25433-.06815.56433-.06815 1.18431-.06815h8.66663c.62 0 .93 0 1.1843.06815.6902.18493 1.2293.72403 1.4143 1.41421.0681.25433.0681.56433.0681 1.18431 0 1.23996 0 1.85994-.1363 2.36863-.3699 1.3803-1.4481 2.4585-2.8284 2.8284-.5087.1363-1.1287.1363-2.3686.1363h-3.3334c-1.23993 0-1.85991 0-2.36858-.1363-1.38036-.3699-2.45855-1.4481-2.82842-2.8284-.1363-.50869-.1363-1.12867-.1363-2.36863z"/><path d="m18 11c.3716.5839.5574.8759.689 1.1897.1172.2797.2023.5718.2535.8707.0575.3355.0575.6815.0575 1.3737v1.5659c0 2.8284 0 4.2426-.8787 5.1213s-2.2929.8787-5.1213.8787h-2c-2.82843 0-4.24264 0-5.12132-.8787s-.87868-2.2929-.87868-5.1213v-1.5659c0-.6922 0-1.0382.0575-1.3737.05124-.2989.1363-.591.25355-.8707.13158-.3138.31737-.6058.68895-1.1897"/><path d="m5 20c-.67648 0-1.01472 0-1.29781-.078-.61932-.1708-1.12151-.6058-1.36062-1.1787-.1093-.2618-.14295-.584-.21027-1.2283l-.06439-.6164c-.07696-.7367-.11544-1.105.04199-1.3777.35185-.6094 1.14235-.5157 1.74814-.5157h1.14296"/><path d="m19 20c.6765 0 1.0147 0 1.2978-.0781.6193-.1709 1.1215-.6064 1.3606-1.1799.1093-.2621.143-.5846.2103-1.2296l.0644-.617c.0624-.5979.2198-1.3328-.3622-1.7181-.2678-.1773-.6545-.1773-1.4279-.1773h-1.143"/><path d="m9 14.5v-1" stroke-linecap="round" stroke-linejoin="round"/><path d="m15 14.5v-1" stroke-linecap="round" stroke-linejoin="round"/><path d="m15 5c0-1.65685-1.3431-3-3-3s-3 1.34315-3 3"/></g></svg>